# xmcd
#
# Track frame offsets: 
#        150
#        15065
#        31189
#        45393
#        61075
#        73574
#        88514
#        102151
#        115801
#        129591
#        144424
#        158717
#        172981
#        186209
#        197837
#        213350
#        226803
#        239853
#        251842
#        265485
#        277149
#        289981
#        301687
#        312555
#        328031
#        340371
#
# Disc length: 4707 seconds
#
# Revision: 0
# Processed by: cddbd v1.5.2PL0 Copyright (c) Steve Scherf et al.
# Submitted via: ExactAudioCopyFreeDBPlugin 1.0
#
DISCID=7812611a
DTITLE=Various Artist - The History of New Orleans Rhythm and Blues, Vo
DTITLE=lume 1:  Jazz, Blues and Creole Roots, 1921-1949
DYEAR=2011
DGENRE=Rhythm and Blues
TTITLE0=Louis Armstrong - St. James Infirmary
TTITLE1=Louis Armstrong - Didn't He Ramble
TTITLE2=Richard Rabbit Brown - James Alley Blues
TTITLE3=Memphis Minnie - Crazy Cryin' Blues
TTITLE4=Jelly Roll Morton - New Orleans Joys
TTITLE5=Willie Jackson - Old New Orleans Blues
TTITLE6=Ann Cook - Mama Cookie
TTITLE7=King Oliver - Black Snake Blues
TTITLE8=Louis Armstrong - I'm Not Rough
TTITLE9=Victoria Spivey - Funny Feathers
TTITLE10=Charley Taylor - Louisiana Bound
TTITLE11=Kid Stormy Weather - Bread and Water Blues
TTITLE12=Joe Falcon and Cleoma Breaux - Allons à Lafayette
TTITLE13=Milton Brown - Keep A Knockin'
TTITLE14=Ann Turner - Deceived Blues
TTITLE15=Champion Jack Dupree - Cabbage Greens No. 1
TTITLE16=Creole George Guesnon - Mississippi Town
TTITLE17=Happy Fats and Rayne-bo Ramblers - Gran Prairie
TTITLE18=Champion Jack Dupree - New Low Down Dog
TTITLE19=The Harlem Hamfats - I'm Cuttin' Out
TTITLE20=Sidney Bechet - Sidney's Blues
TTITLE21=Cousin Joe - Just as Soon as I Go Home
TTITLE22=Harry Choates and His Melody Boys - Hackberry Hop
TTITLE23=Lonnie Johnson with Karl Jones - Trouble in Mind
TTITLE24=Champion Jack Dupree - Junker Blues
TTITLE25=Cousin Joe - Box Car Shorty and Peter Blue
EXTD=
EXTT0=
EXTT1=
EXTT2=
EXTT3=
EXTT4=
EXTT5=
EXTT6=
EXTT7=
EXTT8=
EXTT9=
EXTT10=
EXTT11=
EXTT12=
EXTT13=
EXTT14=
EXTT15=
EXTT16=
EXTT17=
EXTT18=
EXTT19=
EXTT20=
EXTT21=
EXTT22=
EXTT23=
EXTT24=
EXTT25=
PLAYORDER=
